<svg height="512" width="512" fill="#3f51b5" xmlns="http://www.w3.org/2000/svg"><path d="m291.5926514 13.4861288v50.5421371h204.4949646c8.7881775 0 15.912384 7.1242142 15.912384 15.912384v347.875061c0 8.788147-7.1242065 15.912384-15.912384 15.912384h-204.4949646v54.7857971l-291.5926514-51.6048344v-381.9106979zm-96.7604218 212.2150889c.9820404-15.5383301-2.7075348-31.2890625-13.1583862-41.3636322-12.4384155-11.9905701-20.7309875-14.0907288-56.2893524-12.2496338l-28.8864899 1.495575v163.1557922h29.3693314v-56.638855c54.1860885 4.624115 66.744194-26.6316223 68.9648971-54.3992462zm-33.7555237.0002288c-1.5348816 26.5115814-13.8139191 25.3952942-35.2093735 25.0302429v-49.2983246c24.046608-.8481445 34.4261857 2.4460602 35.2093735 24.2680817zm311.3481903-.1433105-55.1117859 57.4820557-57.6095276-57.4820404 43.0720215-.0001984v-75.5203552h-111.1829528v147.6418457l44.2722473-43.5662079 65.8616638 65.9086151s-64.4604492 62.8701477-65.9881592 62.8701477c-1.5277405 0-44.145752-40.64328-44.145752-40.64328v84.6968994h203.4855042v-346.134964h-203.4855041v41.9556961l138.4543457-.0001297v102.7918549z"/></svg>